<?xml version="1.0" encoding="UTF-8" standalone="no"?>
<!-- Created with Inkscape (http://www.inkscape.org/) -->

<svg
   version="1.1"
   id="svg2"
   xml:space="preserve"
   width="800"
   height="266.66666"
   viewBox="0 0 800 266.66666"
   sodipodi:docname="Kalibra_Primary_logo_reverse.ai"
   xmlns:inkscape="http://www.inkscape.org/namespaces/inkscape"
   xmlns:sodipodi="http://sodipodi.sourceforge.net/DTD/sodipodi-0.dtd"
   xmlns="http://www.w3.org/2000/svg"
   xmlns:svg="http://www.w3.org/2000/svg"><defs
     id="defs6"><clipPath
       clipPathUnits="userSpaceOnUse"
       id="clipPath20"><path
         d="M 0,200 H 600 V 0 H 0 Z"
         id="path18" /></clipPath><linearGradient
       x1="0"
       y1="0"
       x2="1"
       y2="0"
       gradientUnits="userSpaceOnUse"
       gradientTransform="matrix(67.908699,18.196081,18.196081,-67.908699,69.038811,90.901985)"
       spreadMethod="pad"
       id="linearGradient64"><stop
         style="stop-opacity:1;stop-color:#00f2ff"
         offset="0"
         id="stop54" /><stop
         style="stop-opacity:1;stop-color:#00f2ff"
         offset="0.1"
         id="stop56" /><stop
         style="stop-opacity:1;stop-color:#00ff7d"
         offset="0.9"
         id="stop58" /><stop
         style="stop-opacity:1;stop-color:#00ff7d"
         offset="0.94150376"
         id="stop60" /><stop
         style="stop-opacity:1;stop-color:#00ff7d"
         offset="1"
         id="stop62" /></linearGradient><linearGradient
       x1="0"
       y1="0"
       x2="1"
       y2="0"
       gradientUnits="userSpaceOnUse"
       gradientTransform="matrix(76.079384,20.38541,20.38541,-76.079384,64.953415,89.807083)"
       spreadMethod="pad"
       id="linearGradient90"><stop
         style="stop-opacity:1;stop-color:#00f2ff"
         offset="0"
         id="stop80" /><stop
         style="stop-opacity:1;stop-color:#00f2ff"
         offset="0.1"
         id="stop82" /><stop
         style="stop-opacity:1;stop-color:#00ff7d"
         offset="0.9"
         id="stop84" /><stop
         style="stop-opacity:1;stop-color:#00ff7d"
         offset="0.94150376"
         id="stop86" /><stop
         style="stop-opacity:1;stop-color:#00ff7d"
         offset="1"
         id="stop88" /></linearGradient><linearGradient
       x1="0"
       y1="0"
       x2="1"
       y2="0"
       gradientUnits="userSpaceOnUse"
       gradientTransform="matrix(84.11853,22.539494,22.539494,-84.11853,60.934471,88.730858)"
       spreadMethod="pad"
       id="linearGradient116"><stop
         style="stop-opacity:1;stop-color:#00f2ff"
         offset="0"
         id="stop106" /><stop
         style="stop-opacity:1;stop-color:#00f2ff"
         offset="0.1"
         id="stop108" /><stop
         style="stop-opacity:1;stop-color:#00ff7d"
         offset="0.9"
         id="stop110" /><stop
         style="stop-opacity:1;stop-color:#00ff7d"
         offset="0.94150376"
         id="stop112" /><stop
         style="stop-opacity:1;stop-color:#00ff7d"
         offset="1"
         id="stop114" /></linearGradient><linearGradient
       x1="0"
       y1="0"
       x2="1"
       y2="0"
       gradientUnits="userSpaceOnUse"
       gradientTransform="matrix(91.889328,24.621672,24.621672,-91.889328,57.049179,87.689377)"
       spreadMethod="pad"
       id="linearGradient142"><stop
         style="stop-opacity:1;stop-color:#00f2ff"
         offset="0"
         id="stop132" /><stop
         style="stop-opacity:1;stop-color:#00f2ff"
         offset="0.1"
         id="stop134" /><stop
         style="stop-opacity:1;stop-color:#00ff7d"
         offset="0.9"
         id="stop136" /><stop
         style="stop-opacity:1;stop-color:#00ff7d"
         offset="0.94150376"
         id="stop138" /><stop
         style="stop-opacity:1;stop-color:#00ff7d"
         offset="1"
         id="stop140" /></linearGradient><linearGradient
       x1="0"
       y1="0"
       x2="1"
       y2="0"
       gradientUnits="userSpaceOnUse"
       gradientTransform="matrix(99.235176,26.589987,26.589987,-99.235176,53.375465,86.70501)"
       spreadMethod="pad"
       id="linearGradient168"><stop
         style="stop-opacity:1;stop-color:#00f2ff"
         offset="0"
         id="stop158" /><stop
         style="stop-opacity:1;stop-color:#00f2ff"
         offset="0.1"
         id="stop160" /><stop
         style="stop-opacity:1;stop-color:#00ff7d"
         offset="0.9"
         id="stop162" /><stop
         style="stop-opacity:1;stop-color:#00ff7d"
         offset="0.94150376"
         id="stop164" /><stop
         style="stop-opacity:1;stop-color:#00ff7d"
         offset="1"
         id="stop166" /></linearGradient><linearGradient
       x1="0"
       y1="0"
       x2="1"
       y2="0"
       gradientUnits="userSpaceOnUse"
       gradientTransform="matrix(105.98781,28.399347,28.399347,-105.98781,49.999889,85.80072)"
       spreadMethod="pad"
       id="linearGradient194"><stop
         style="stop-opacity:1;stop-color:#00f2ff"
         offset="0"
         id="stop184" /><stop
         style="stop-opacity:1;stop-color:#00f2ff"
         offset="0.1"
         id="stop186" /><stop
         style="stop-opacity:1;stop-color:#00ff7d"
         offset="0.9"
         id="stop188" /><stop
         style="stop-opacity:1;stop-color:#00ff7d"
         offset="0.94150376"
         id="stop190" /><stop
         style="stop-opacity:1;stop-color:#00ff7d"
         offset="1"
         id="stop192" /></linearGradient></defs><sodipodi:namedview
     id="namedview4"
     pagecolor="#ffffff"
     bordercolor="#666666"
     borderopacity="1.0"
     inkscape:pageshadow="2"
     inkscape:pageopacity="0.0"
     inkscape:pagecheckerboard="0" /><g
     id="g8"
     inkscape:groupmode="layer"
     inkscape:label="Kalibra_Primary_logo_reverse"
     transform="matrix(1.3333333,0,0,-1.3333333,0,266.66667)"><g
       id="g10"
       transform="translate(223.507,58.8634)"><path
         d="M 0,0 -20.902,26.239 V 0 h -15.565 v 82.273 h 15.565 V 35.466 l 20.68,26.127 H 20.012 L -7.115,30.685 20.235,0 Z"
         style="fill:#ffffff;fill-opacity:1;fill-rule:nonzero;stroke:none"
         id="path12" /></g><g
       id="g14"><g
         id="g16"
         clip-path="url(#clipPath20)"><g
           id="g22"
           transform="translate(288.725,99.3886)"><path
             d="m 0,0 c -1.484,2.705 -3.485,4.781 -6.004,6.226 -2.52,1.445 -5.225,2.168 -8.115,2.168 -2.892,0 -5.56,-0.705 -8.006,-2.113 -2.445,-1.408 -4.43,-3.465 -5.948,-6.17 -1.52,-2.706 -2.279,-5.911 -2.279,-9.617 0,-3.707 0.759,-6.948 2.279,-9.728 1.518,-2.78 3.52,-4.911 6.004,-6.393 2.483,-1.484 5.132,-2.224 7.95,-2.224 2.89,0 5.595,0.723 8.115,2.168 2.519,1.445 4.52,3.52 6.004,6.226 1.482,2.705 2.224,5.949 2.224,9.729 C 2.224,-5.949 1.482,-2.707 0,0 m -42.526,7.059 c 2.482,4.818 5.854,8.523 10.117,11.119 4.261,2.593 9.023,3.891 14.287,3.891 4.595,0 8.616,-0.928 12.063,-2.78 3.446,-1.853 6.207,-4.188 8.283,-7.004 v 8.783 H 17.9 V -40.525 H 2.224 v 9.005 c -2.001,-2.89 -4.764,-5.281 -8.283,-7.171 -3.521,-1.89 -7.58,-2.835 -12.174,-2.835 -5.19,0 -9.915,1.334 -14.176,4.003 -4.263,2.668 -7.635,6.429 -10.117,11.284 -2.484,4.854 -3.724,10.432 -3.724,16.733 0,6.226 1.24,11.747 3.724,16.565"
             style="fill:#ffffff;fill-opacity:1;fill-rule:nonzero;stroke:none"
             id="path24" /></g><path
           d="m 335.108,58.863 h -15.565 v 82.273 h 15.565 z"
           style="fill:#ffffff;fill-opacity:1;fill-rule:nonzero;stroke:none"
           id="path26" /><path
           d="m 363.759,58.863 h -15.565 v 61.593 h 15.565 z m -14.509,71.544 c -1.817,1.741 -2.724,3.909 -2.724,6.504 0,2.594 0.907,4.762 2.724,6.504 1.815,1.741 4.094,2.613 6.837,2.613 2.742,0 5.021,-0.872 6.838,-2.613 1.816,-1.742 2.724,-3.91 2.724,-6.504 0,-2.595 -0.908,-4.763 -2.724,-6.504 -1.817,-1.742 -4.096,-2.612 -6.838,-2.612 -2.743,0 -5.022,0.87 -6.837,2.612"
           style="fill:#ffffff;fill-opacity:1;fill-rule:nonzero;stroke:none"
           id="path28" /><g
           id="g30"
           transform="translate(422.6618,99.4992)"><path
             d="m 0,0 c -1.52,2.705 -3.522,4.762 -6.004,6.171 -2.484,1.407 -5.17,2.112 -8.06,2.112 -2.818,0 -5.467,-0.722 -7.95,-2.168 -2.484,-1.445 -4.485,-3.54 -6.004,-6.281 -1.52,-2.743 -2.279,-5.968 -2.279,-9.673 0,-3.707 0.759,-6.931 2.279,-9.673 1.519,-2.743 3.52,-4.836 6.004,-6.281 2.483,-1.446 5.132,-2.168 7.95,-2.168 2.89,0 5.576,0.74 8.06,2.223 2.482,1.482 4.484,3.595 6.004,6.337 1.518,2.742 2.279,6.004 2.279,9.785 C 2.279,-5.911 1.518,-2.706 0,0 m -22.014,19.179 c 3.52,1.852 7.542,2.779 12.063,2.779 5.262,0 10.024,-1.298 14.287,-3.891 4.261,-2.595 7.633,-6.282 10.117,-11.063 2.482,-4.78 3.725,-10.322 3.725,-16.62 0,-6.301 -1.243,-11.879 -3.725,-16.733 -2.484,-4.855 -5.856,-8.617 -10.117,-11.285 -4.263,-2.668 -9.025,-4.003 -14.287,-4.003 -4.596,0 -8.617,0.909 -12.063,2.724 -3.447,1.816 -6.208,4.169 -8.283,7.061 v -8.784 h -15.565 v 82.273 h 15.565 V 11.952 c 2.002,2.964 4.762,5.373 8.283,7.227"
             style="fill:#ffffff;fill-opacity:1;fill-rule:nonzero;stroke:none"
             id="path32" /></g><g
           id="g34"
           transform="translate(532.1006,99.3886)"><path
             d="m 0,0 c -1.484,2.705 -3.485,4.781 -6.005,6.226 -2.519,1.445 -5.225,2.168 -8.115,2.168 -2.891,0 -5.56,-0.705 -8.005,-2.113 -2.446,-1.408 -4.43,-3.465 -5.948,-6.17 -1.52,-2.706 -2.28,-5.911 -2.28,-9.617 0,-3.707 0.76,-6.948 2.28,-9.728 1.518,-2.78 3.519,-4.911 6.003,-6.393 2.482,-1.484 5.133,-2.224 7.95,-2.224 2.89,0 5.596,0.723 8.115,2.168 2.52,1.445 4.521,3.52 6.005,6.226 1.481,2.705 2.223,5.949 2.223,9.729 C 2.223,-5.949 1.481,-2.707 0,0 m -42.527,7.059 c 2.483,4.818 5.854,8.523 10.118,11.119 4.261,2.593 9.022,3.891 14.286,3.891 4.594,0 8.616,-0.928 12.064,-2.78 3.446,-1.853 6.207,-4.188 8.282,-7.004 v 8.783 H 17.899 V -40.525 H 2.223 v 9.005 c -2.002,-2.89 -4.763,-5.281 -8.282,-7.171 -3.522,-1.89 -7.581,-2.835 -12.174,-2.835 -5.19,0 -9.915,1.334 -14.176,4.003 -4.264,2.668 -7.635,6.429 -10.118,11.284 -2.484,4.854 -3.724,10.432 -3.724,16.733 0,6.226 1.24,11.747 3.724,16.565"
             style="fill:#ffffff;fill-opacity:1;fill-rule:nonzero;stroke:none"
             id="path36" /></g><g
           id="g38"
           transform="translate(481.4962,111.3499)"><path
             d="m 0,0 v 0.001 c 1.867,3.621 4.158,6.8 6.821,9.544 L 6.827,9.591 C -6.301,11.243 -16.569,8.93 -23.518,2.709 -29.684,-2.81 -32.734,-10.74 -32.587,-20.858 l 0.004,-31.628 h 15.537 v 31.241 l -0.006,0.615 c -0.029,2.02 -0.119,8.168 3.896,11.763 2.682,2.4 6.745,3.277 10.836,3.419 C -1.665,-3.569 -0.9,-1.747 0,0"
             style="fill:#ffffff;fill-opacity:1;fill-rule:nonzero;stroke:none"
             id="path40" /></g></g></g><g
       id="g42"><g
         id="g44"><g
           id="g50"><g
             id="g52"><path
               d="M 63.788,110.506 74.291,71.3 l 39.208,-10.506 28.7,28.701 -10.504,39.206 -39.207,10.505 z M 75.354,72.361 65.236,110.116 92.876,137.755 130.631,127.64 140.75,89.884 113.109,62.245 Z"
               style="fill:url(#linearGradient64);stroke:none"
               id="path66" /></g></g></g></g><g
       id="g68"><g
         id="g70"><g
           id="g76"><g
             id="g78"><path
               d="m 62.749,115.448 6.685,-42.205 0.057,-0.371 40.246,-15.448 33.502,27.127 -6.687,42.207 -0.057,0.371 -40.244,15.447 z m 7.911,-41.632 -6.509,41.094 32.333,26.183 38.843,-14.909 6.509,-41.094 -32.333,-26.183 z"
               style="fill:url(#linearGradient90);stroke:none"
               id="path92" /></g></g></g></g><g
       id="g94"><g
         id="g96"><g
           id="g102"><g
             id="g104"><path
               d="m 62.201,120.786 2.377,-45.347 0.019,-0.375 40.458,-20.613 0.334,-0.171 38.399,24.934 -2.378,45.347 -0.018,0.374 -40.462,20.615 -0.332,0.171 z m 3.655,-44.904 -2.318,44.221 37.137,24.118 39.457,-20.103 2.317,-44.221 -37.138,-24.117 z"
               style="fill:url(#linearGradient116);stroke:none"
               id="path118" /></g></g></g></g><g
       id="g120"><g
         id="g122"><g
           id="g128"><g
             id="g130"><path
               d="m 62.211,126.485 -2.525,-48.187 -0.02,-0.375 40.782,-26.484 43.329,22.077 2.524,48.186 0.021,0.375 -40.784,26.484 z m -1.207,-47.88 2.467,47.062 41.989,21.394 39.525,-25.666 -2.467,-47.061 -41.992,-21.395 z"
               style="fill:url(#linearGradient142);stroke:none"
               id="path144" /></g></g></g></g><g
       id="g146"><g
         id="g148"><g
           id="g154"><g
             id="g156"><path
               d="M 62.852,132.505 54.773,81.49 94.621,49.222 l 0.292,-0.237 48.22,18.51 8.081,51.015 -39.848,32.269 -0.293,0.236 z m -6.678,-50.477 7.847,49.532 46.818,17.971 38.972,-31.559 L 141.965,68.44 95.147,50.468 Z"
               style="fill:url(#linearGradient168);stroke:none"
               id="path170" /></g></g></g></g><g
       id="g172"><g
         id="g174"><g
           id="g180"><g
             id="g182"><path
               d="M 64.199,138.794 50.097,86.163 50,85.801 88.793,47.006 l 52.997,14.2 14.102,52.631 0.096,0.363 -38.795,38.794 z m -12.75,-52.605 13.813,51.544 51.542,13.81 37.734,-37.733 -13.812,-51.543 -51.544,-13.81 z"
               style="fill:url(#linearGradient194);stroke:none"
               id="path196" /></g></g></g></g></g></svg>
